# xmcd
#
# Track frame offsets:
#	150
#	4478
#	19355
#	40213
#	59914
#	78620
#	93415
#	111393
#	128340
#	147052
#	164326
#	181474
#	199133
#	214283
#	234083
#
# Disc length: 3445 seconds
#
# Revision: 1
# Processed by: cddbd v1.5.2PL0 Copyright (c) Steve Scherf et al.
# Submitted via: audiograbber 1.83.01
#
DISCID=d60d730f
DTITLE=UG/OD - Fatta Platta
DYEAR=2012
DGENRE=Rap
TTITLE0=Alusta
TTITLE1=Tanssii
TTITLE2=Hulttiot
TTITLE3=Mik‰ Soundi
TTITLE4=Fatta Platta
TTITLE5=Flipperinp‰‰
TTITLE6=Trollaava MC
TTITLE7=PA Kassanova
TTITLE8=Luonto Kutsuu
TTITLE9=Esteettinen
TTITLE10=No Hehkutus
TTITLE11=T.A.K.K.I
TTITLE12=Kristallia
TTITLE13=Joka P‰iv‰
TTITLE14=Siin‰s Kuulit
EXTD=
EXTT0=
EXTT1=
EXTT2=
EXTT3=
EXTT4=
EXTT5=
EXTT6=
EXTT7=
EXTT8=
EXTT9=
EXTT10=
EXTT11=
EXTT12=
EXTT13=
EXTT14=
PLAYORDER=
